<?xml version="1.0" encoding="utf-8"?>
<!-- Generator: Adobe Illustrator 26.3.1, SVG Export Plug-In . SVG Version: 6.00 Build 0)  -->
<svg version="1.1" id="Ebene_7" xmlns="http://www.w3.org/2000/svg" xmlns:xlink="http://www.w3.org/1999/xlink" x="0px" y="0px"
	 viewBox="0 0 627.38 307.72" style="enable-background:new 0 0 627.38 307.72;" xml:space="preserve">
<style type="text/css">
	.st0{clip-path:url(#SVGID_00000065757107691642425270000008934235521663260833_);fill:#333399;}
	.st1{fill:#333399;}
</style>
<g>
	<defs>
		<path id="SVGID_1_" d="M132.74,212.66c-2.1,0-2.1-2.68-2.06-4.26c1.9-76.44,68.78-198.66,184.63-198.71
			c115.4-0.05,185.08,121.17,184.78,198.19c-0.01,1.7-0.11,4.78-3.09,4.78"/>
	</defs>
	<clipPath id="SVGID_00000176733131249960360250000001479235400328193977_">
		<use xlink:href="#SVGID_1_"  style="overflow:visible;"/>
	</clipPath>
	<path style="clip-path:url(#SVGID_00000176733131249960360250000001479235400328193977_);fill:#333399;" d="M230.05,61.47l-60.35,0
		c-3.16,0-6.14,1.5-8.03,4.03l-27.77,37.36c-2.63,3.54-2.63,8.39,0,11.93l27.77,37.36c1.89,2.54,4.86,4.03,8.03,4.03l60.35,0
		c3.16,0,6.14-1.5,8.03-4.03l27.77-37.36c2.63-3.54,2.63-8.39,0-11.93L238.07,65.5C236.19,62.96,233.21,61.47,230.05,61.47z"/>
	<path style="clip-path:url(#SVGID_00000176733131249960360250000001479235400328193977_);fill:#333399;" d="M268.08,215.48
		c1.36-1.83,1.36-4.08,0-5.91l-30.81-41.45c-1.36-1.83-3.87-2.96-6.59-2.96l-61.62,0c-2.72,0-5.23,1.13-6.59,2.96l-30.81,41.45
		c-1.36,1.83-1.36,4.08,0,5.91"/>
	<path style="clip-path:url(#SVGID_00000176733131249960360250000001479235400328193977_);fill:#333399;" d="M345.57,113.08
		l-60.35,0c-3.16,0-6.14,1.5-8.03,4.03l-27.77,37.36c-2.63,3.54-2.63,8.39,0,11.93l27.77,37.36c1.89,2.54,4.86,4.03,8.03,4.03
		l60.35,0c3.16,0,6.14-1.5,8.03-4.03l27.77-37.36c2.63-3.54,2.63-8.39,0-11.93l-27.77-37.36
		C351.71,114.57,348.73,113.08,345.57,113.08z"/>
	<path style="clip-path:url(#SVGID_00000176733131249960360250000001479235400328193977_);fill:#333399;" d="M460.8,61.47l-60.35,0
		c-3.16,0-6.14,1.5-8.03,4.03l-27.77,37.36c-2.63,3.54-2.63,8.39,0,11.93l27.77,37.36c1.89,2.54,4.86,4.03,8.03,4.03l60.35,0
		c3.16,0,6.14-1.5,8.03-4.03l27.77-37.36c2.63-3.54,2.63-8.39,0-11.93L468.82,65.5C466.94,62.96,463.96,61.47,460.8,61.47z"/>
	<path style="clip-path:url(#SVGID_00000176733131249960360250000001479235400328193977_);fill:#333399;" d="M345.57,9.46l-60.35,0
		c-3.16,0-6.14,1.5-8.03,4.03l-27.77,37.36c-2.63,3.54-2.63,8.39,0,11.93l27.77,37.36c1.89,2.54,4.86,4.03,8.03,4.03l60.35,0
		c3.16,0,6.14-1.5,8.03-4.03l27.77-37.36c2.63-3.54,2.63-8.39,0-11.93l-27.77-37.36C351.71,10.96,348.73,9.46,345.57,9.46z"/>
	<path style="clip-path:url(#SVGID_00000176733131249960360250000001479235400328193977_);fill:#333399;" d="M230.05-42.23l-60.35,0
		c-3.16,0-6.14,1.5-8.03,4.03L133.9-0.84c-2.63,3.54-2.63,8.39,0,11.93l27.77,37.36c1.89,2.54,4.86,4.03,8.03,4.03l60.35,0
		c3.16,0,6.14-1.5,8.03-4.03l27.77-37.36c2.63-3.54,2.63-8.39,0-11.93L238.07-38.2C236.19-40.74,233.21-42.23,230.05-42.23z"/>
	<path style="clip-path:url(#SVGID_00000176733131249960360250000001479235400328193977_);fill:#333399;" d="M460.8-42.23l-60.35,0
		c-3.16,0-6.14,1.5-8.03,4.03L364.65-0.84c-2.63,3.54-2.63,8.39,0,11.93l27.77,37.36c1.89,2.54,4.86,4.03,8.03,4.03l60.35,0
		c3.16,0,6.14-1.5,8.03-4.03l27.77-37.36c2.63-3.54,2.63-8.39,0-11.93L468.82-38.2C466.94-40.74,463.96-42.23,460.8-42.23z"/>
	<path style="clip-path:url(#SVGID_00000176733131249960360250000001479235400328193977_);fill:#333399;" d="M498.83,215.48
		c1.36-1.83,1.36-4.08,0-5.91l-30.81-41.45c-1.36-1.83-3.87-2.96-6.59-2.96l-61.62,0c-2.72,0-5.23,1.13-6.59,2.96l-30.81,41.45
		c-1.36,1.83-1.36,4.08,0,5.91"/>
	<path style="clip-path:url(#SVGID_00000176733131249960360250000001479235400328193977_);fill:#333399;" d="M114.17,113.08
		l-60.35,0c-3.16,0-6.14,1.5-8.03,4.03l-27.77,37.36c-2.63,3.54-2.63,8.39,0,11.93l27.77,37.36c1.89,2.54,4.86,4.03,8.03,4.03
		l60.35,0c3.16,0,6.14-1.5,8.03-4.03l27.77-37.36c2.63-3.54,2.63-8.39,0-11.93l-27.77-37.36
		C120.31,114.57,117.34,113.08,114.17,113.08z"/>
	<path style="clip-path:url(#SVGID_00000176733131249960360250000001479235400328193977_);fill:#333399;" d="M576.96,113.08
		l-60.35,0c-3.16,0-6.14,1.5-8.03,4.03l-27.77,37.36c-2.63,3.54-2.63,8.39,0,11.93l27.77,37.36c1.89,2.54,4.86,4.03,8.03,4.03
		l60.35,0c3.16,0,6.14-1.5,8.03-4.03l27.77-37.36c2.63-3.54,2.63-8.39,0-11.93l-27.77-37.36
		C583.1,114.57,580.13,113.08,576.96,113.08z"/>
</g>
<path class="st1" d="M234.91,296.74h-94.27c-5.52,0-10-4.48-10-10v-52.77c0-5.52,4.48-10,10-10h94.27c5.52,0,10,4.48,10,10v52.77
	C244.91,292.27,240.44,296.74,234.91,296.74z"/>
<path class="st1" d="M489.98,296.74h-94.27c-5.52,0-10-4.48-10-10v-52.77c0-5.52,4.48-10,10-10h94.27c5.52,0,10,4.48,10,10v52.77
	C499.98,292.27,495.5,296.74,489.98,296.74z"/>
<path class="st1" d="M112.05,212.3l-94.27-25.26c-5.52-1.48-10-7.16-10-12.68V121.6c0-5.52,4.48-8.8,10-7.32l94.27,25.26
	c5.52,1.48,10,7.16,10,12.68v52.77C122.05,210.51,117.57,213.78,112.05,212.3z"/>
<path class="st1" d="M622.22,121.6c0-5.52-4.48-8.8-10-7.32l-94.27,25.26c-5.52,1.48-10,7.16-10,12.68v52.77
	c0,5.52,4.48,8.8,10,7.32"/>
</svg>
